<?xml version="1.0" encoding="utf-8"?>
<!-- Generator: Adobe Illustrator 25.0.0, SVG Export Plug-In . SVG Version: 6.00 Build 0)  -->
<svg version="1.1" id="Ebene_1" xmlns="http://www.w3.org/2000/svg" xmlns:xlink="http://www.w3.org/1999/xlink" x="0px" y="0px"
	 viewBox="0 0 55.3 97.4" style="enable-background:new 0 0 55.3 97.4;" xml:space="preserve">
<style type="text/css">
	.st0{fill:none;stroke:#0E2334;stroke-width:1.44;stroke-linecap:round;stroke-linejoin:round;}
</style>
<path class="st0" d="M54.5,41.2v6.5c-0.1,14.8-12.1,26.8-26.9,26.9l0,0c-14.8,0-26.8-12-26.9-26.9v-6.5"/>
<line class="st0" x1="27.6" y1="74.6" x2="27.6" y2="93.8"/>
<line class="st0" x1="5.6" y1="96.7" x2="49.7" y2="96.7"/>
<path class="st0" d="M27.6,0.7L27.6,0.7c9.5,0,17.2,7.7,17.2,17.2v28.2c0,9.5-7.7,17.2-17.2,17.2l0,0c-9.5,0-17.2-7.7-17.2-17.2
	V17.9C10.5,8.4,18.1,0.7,27.6,0.7z"/>
<line class="st0" x1="11.2" y1="17.4" x2="19" y2="17.4"/>
<line class="st0" x1="11.2" y1="27.1" x2="19" y2="27.1"/>
<line class="st0" x1="11.2" y1="36.9" x2="19" y2="36.9"/>
<line class="st0" x1="11.2" y1="46.7" x2="19" y2="46.7"/>
<line class="st0" x1="36.3" y1="17.4" x2="44" y2="17.4"/>
<line class="st0" x1="36.3" y1="27.1" x2="44" y2="27.1"/>
<line class="st0" x1="36.3" y1="36.9" x2="44" y2="36.9"/>
<line class="st0" x1="36.3" y1="46.7" x2="44" y2="46.7"/>
</svg>
