<?xml version="1.0" encoding="utf-8"?>
<!-- Generator: Adobe Illustrator 25.0.0, SVG Export Plug-In . SVG Version: 6.00 Build 0)  -->
<svg version="1.1" id="Ebene_1" xmlns="http://www.w3.org/2000/svg" xmlns:xlink="http://www.w3.org/1999/xlink" x="0px" y="0px"
	 viewBox="0 0 98.1 92.4" style="enable-background:new 0 0 98.1 92.4;" xml:space="preserve">
<style type="text/css">
	.st0{fill:none;stroke:#0E2334;stroke-width:1.44;stroke-linecap:round;stroke-linejoin:round;}
</style>
<path class="st0" d="M19.7,90.8h68.4c0-4.6,3.7-8.3,8.3-8.3V50.7c-4.6,0-8.3-3.7-8.3-8.3H19.7c0,4.6-3.7,8.3-8.3,8.3v31.8
	C16,82.5,19.7,86.2,19.7,90.8z"/>
<line class="st0" x1="70.7" y1="90.8" x2="70.7" y2="85.4"/>
<line class="st0" x1="70.7" y1="80.1" x2="70.7" y2="74.6"/>
<line class="st0" x1="70.7" y1="69.3" x2="70.7" y2="63.9"/>
<line class="st0" x1="70.7" y1="58.5" x2="70.7" y2="53.1"/>
<line class="st0" x1="70.7" y1="47.8" x2="70.7" y2="42.3"/>
<path class="st0" d="M87.5,41.3c-2.6-3.8-1.7-9,2-11.6L71.3,3.6c-3.8,2.7-9,1.7-11.6-2c0,0,0,0,0,0l-56,39.3c2.6,3.8,1.7,8.9-2,11.6
	l9.8,14.4"/>
<line class="st0" x1="67" y1="42.4" x2="63.9" y2="38"/>
<line class="st0" x1="60.9" y1="33.6" x2="57.7" y2="29.2"/>
<line class="st0" x1="54.7" y1="24.8" x2="51.6" y2="20.4"/>
<line class="st0" x1="48.5" y1="16" x2="45.4" y2="11.5"/>
<polygon class="st0" points="42.1,52.3 46.4,62.6 57.1,63.6 49,70.9 51.4,81.8 42.1,76 32.9,81.8 35.3,70.9 27.1,63.6 37.9,62.6 
	42.1,52.3 "/>
<polyline class="st0" points="26,42.1 24.7,36.2 34,42.2 43.4,36.8 42.2,41.9 "/>
</svg>
