<svg id="Ebene_1" data-name="Ebene 1" xmlns="http://www.w3.org/2000/svg" viewBox="0 0 96.99 83.44"><defs><style>.cls-1{fill:none;stroke:#0e2334;stroke-linecap:round;stroke-linejoin:round;stroke-width:1.44px;}</style></defs><path class="cls-1" d="M2.5,91H97.55V9H2V91H53" transform="translate(-1.28 -8.28)"/><line class="cls-1" x1="95.72" y1="17.77" x2="0.72" y2="17.77"/><path class="cls-1" d="M84.05,15.39a2.1,2.1,0,1,0,2.09,2.1,2.1,2.1,0,0,0-2.09-2.1Z" transform="translate(-1.28 -8.28)"/><path class="cls-1" d="M70.65,15.39a2.1,2.1,0,1,0,2.1,2.1,2.1,2.1,0,0,0-2.1-2.1Z" transform="translate(-1.28 -8.28)"/><polygon class="cls-1" points="36.88 25.18 36.88 46.02 11.79 46.02 11.79 25.18 36.88 25.18 36.88 25.18"/><line class="cls-1" x1="46.72" y1="25.34" x2="85.34" y2="25.34"/><line class="cls-1" x1="46.72" y1="35.48" x2="85.34" y2="35.48"/><line class="cls-1" x1="46.71" y1="45.52" x2="85.33" y2="45.52"/><polygon class="cls-1" points="36.92 54.55 36.92 75.39 11.83 75.39 11.83 54.55 36.92 54.55 36.92 54.55"/><line class="cls-1" x1="46.76" y1="54.71" x2="85.38" y2="54.71"/><line class="cls-1" x1="46.76" y1="64.85" x2="85.38" y2="64.85"/><line class="cls-1" x1="46.75" y1="74.89" x2="85.37" y2="74.89"/></svg>