<?xml version="1.0" encoding="utf-8"?>
<!-- Generator: Adobe Illustrator 25.0.0, SVG Export Plug-In . SVG Version: 6.00 Build 0)  -->
<svg version="1.1" id="Ebene_1" xmlns="http://www.w3.org/2000/svg" xmlns:xlink="http://www.w3.org/1999/xlink" x="0px" y="0px"
	 viewBox="0 0 97.4 82.4" style="enable-background:new 0 0 97.4 82.4;" xml:space="preserve">
<style type="text/css">
	.st0{fill:none;stroke:#0E2334;stroke-width:1.44;stroke-linecap:round;stroke-linejoin:round;}
</style>
<path class="st0" d="M2,80.5V7.6c0-3.3,2.7-5.9,5.9-5.8h81.5c3.3,0,5.9,2.6,5.9,5.8v72.9"/>
<path class="st0" d="M14.8,2.8C14.1,16,15.3,28.5,5.2,54.9c2.6,8.4,5.3,16.9,4.5,25.6"/>
<path class="st0" d="M27.7,2.8C26.3,16,26.6,28.5,8.9,54.9c4.6,8.4,10.3,16.9,9,25.6"/>
<line class="st0" x1="2" y1="80.5" x2="17.2" y2="80.5"/>
<line class="st0" x1="19.2" y1="73.1" x2="78.1" y2="73.1"/>
<path class="st0" d="M27.5,4.3c7.4,5.6,14.1,7.8,21.2,7.8s13.8-2.6,21.2-7.8"/>
<path class="st0" d="M70.5,13.4c-7.6,6.3-14.6,8.8-21.8,8.8s-14.3-2.9-21.8-8.8"/>
<path class="st0" d="M82.5,2.8c0.8,13.2-0.5,25.7,9.6,52.1c-2.6,8.4-5.3,16.9-4.5,25.6"/>
<path class="st0" d="M69.7,2.8C71,16,70.7,28.5,88.4,54.9c-4.6,8.4-10.3,16.9-9,25.6"/>
<line class="st0" x1="95.4" y1="80.5" x2="80.2" y2="80.5"/>
</svg>
