<?xml version="1.0" encoding="utf-8"?>
<!-- Generator: Adobe Illustrator 25.0.0, SVG Export Plug-In . SVG Version: 6.00 Build 0)  -->
<svg version="1.1" id="Ebene_1" xmlns="http://www.w3.org/2000/svg" xmlns:xlink="http://www.w3.org/1999/xlink" x="0px" y="0px"
	 viewBox="0 0 76 95.7" style="enable-background:new 0 0 76 95.7;" xml:space="preserve">
<style type="text/css">
	.st0{fill:#0E2334;}
	.st1{fill:none;stroke:#0E2334;stroke-width:1.44;}
	.st2{fill:#F4F5F7;stroke:#0E2334;stroke-width:1.44;}
	.st3{stroke:#0E2334;stroke-width:0.5;stroke-miterlimit:10;}
</style>
<path class="st0" d="M2.7,95.7H0c0-5.5,4.3-10.1,8.3-10.8c2.1-5.5,8.2-8.2,13.7-6.1c0.1,0,0.1,0.1,0.2,0.1c2-7.2,8.6-12.1,16-12.1
	c6.5,0,12.4,3.8,15.1,9.7c1-0.2,2-0.2,3.1-0.2c10.7,0,19.4,8.7,19.6,19.4h-2.7c-0.2-9.2-7.7-16.7-16.9-16.7c-1.2,0-2.4,0.1-3.6,0.4
	l-1.1,0.2l-0.4-1.1c-2.7-7.2-10.7-10.8-17.9-8.1c-4.6,1.7-8,5.8-8.8,10.7l-0.3,2L22.4,82c-3.7-2.3-8.5-1.2-10.8,2.4
	c-0.4,0.7-0.7,1.4-0.9,2.1l-0.3,1h-1C6.7,87.6,2.7,91.2,2.7,95.7z"/>
<path class="st1" d="M52.3,41.3c0,8.3-1.6,16.6-4.8,24.3H28.8c-0.8-2-1.6-4.1-2.2-6.2c-1.4-4.6-2.2-9.4-2.5-14.2
	c-0.1-1.3-0.1-2.6-0.1-3.9c0-14.6,5-28.8,14.1-40.2c2.6,3.3,5,6.8,6.9,10.6C49.9,20.9,52.3,31.1,52.3,41.3z"/>
<polygon class="st2" points="49.4,73.1 27,73.1 28.9,65.7 47.6,65.7 "/>
<circle class="st1" cx="38.2" cy="29.4" r="6.1"/>
<path class="st1" d="M26.6,59.6l-9.5,9.5V52.4l7.1-7.1l0,0C24.4,50.1,25.3,54.9,26.6,59.6z"/>
<path class="st1" d="M49.7,59.6l9.6,9.5V52.4l-7.1-7.1l0,0C51.9,50.1,51.1,54.9,49.7,59.6z"/>
<path class="st1" d="M45.1,11.8H31.3c2-3.7,4.3-7.3,6.9-10.6C40.8,4.5,43.2,8,45.1,11.8z"/>
<rect x="37.6" y="45.7" class="st3" width="1.2" height="23.4"/>
</svg>
